<svg width="42" height="24" viewBox="0 0 42 24" fill="none" xmlns="http://www.w3.org/2000/svg">
<g id="Logo">
<path id="Vector" d="M25.3585 6.44275C25.9478 5.75061 26.5573 5.10942 27.1873 4.51908C27.8171 3.92875 28.447 3.41985 29.0769 2.99237C29.7068 2.56488 30.3266 2.23918 30.9362 2.01527C31.566 1.77099 32.1655 1.64886 32.7344 1.64886C33.1814 1.64886 33.6183 1.73028 34.045 1.89313C34.492 2.03562 34.8883 2.26972 35.2337 2.59542C35.5791 2.90076 35.8534 3.29771 36.0566 3.78626C36.2598 4.2748 36.3614 4.85498 36.3614 5.52671C36.3614 6.5038 36.2293 7.47074 35.9652 8.42747C35.701 9.36388 35.3657 10.2799 34.9594 11.1756C34.553 12.0712 34.1161 12.9364 33.6488 13.771C33.2018 14.6056 32.7751 15.4097 32.3687 16.1832C31.9623 16.9364 31.627 17.659 31.3629 18.3512C31.0987 19.0229 30.9666 19.6437 30.9666 20.2137C30.9666 20.6616 31.0784 20.9873 31.3019 21.1908C31.5457 21.374 31.7997 21.4657 32.0639 21.4657C32.5922 21.4657 33.2119 21.1603 33.9231 20.5496C34.6546 19.9389 35.4165 19.1552 36.209 18.1985C37.0015 17.2417 37.7939 16.1934 38.5864 15.0534C39.3991 13.8931 40.1713 12.7634 40.9028 11.6641L42 12.5191C41.7358 12.9466 41.3904 13.5166 40.9637 14.229C40.5573 14.9211 40.0798 15.6743 39.5312 16.4885C38.9826 17.2824 38.3832 18.0967 37.733 18.9313C37.0827 19.7455 36.3919 20.4886 35.6604 21.1603C34.9492 21.8117 34.2076 22.3511 33.4354 22.7786C32.6633 23.1858 31.8911 23.3893 31.119 23.3893C30.6923 23.3893 30.2758 23.3282 29.8694 23.2061C29.4833 23.084 29.1379 22.8906 28.8331 22.6259C28.5283 22.341 28.2845 21.9745 28.1016 21.5267C27.9187 21.0789 27.8273 20.5293 27.8273 19.8779C27.8273 18.9822 27.9797 18.1069 28.2845 17.2519C28.5893 16.397 28.9754 15.5522 29.4427 14.7176C29.91 13.8829 30.4078 13.0585 30.9362 12.2443C31.4848 11.4097 31.9928 10.5853 32.4601 9.77101C32.9274 8.95676 33.3135 8.14251 33.6183 7.32826C33.9231 6.49364 34.0755 5.64886 34.0755 4.79388C34.0755 4.36643 33.9942 4.03053 33.8317 3.78626C33.6691 3.52163 33.3643 3.38931 32.9173 3.38931C32.2061 3.38931 31.4543 3.68448 30.6618 4.2748C29.8694 4.84478 29.0464 5.61834 28.1931 6.59544C27.3396 7.57253 26.4659 8.71248 25.5719 10.0153C24.6778 11.2977 23.7838 12.6616 22.8897 14.1068C22.016 15.5318 21.1422 16.9873 20.2685 18.4733C19.4151 19.9389 18.5922 21.3537 17.7997 22.7176L15.2395 21.374C16.3164 19.1552 17.3222 17.1705 18.2569 15.4199C19.2119 13.6692 20.045 12.0916 20.7562 10.687C21.4673 9.26209 22.0261 7.96945 22.4325 6.80918C22.8389 5.6285 23.0421 4.51908 23.0421 3.48092C23.0421 3.27736 23.0218 3.07379 22.9811 2.87023C22.9405 2.64631 22.8592 2.45293 22.7373 2.29008C22.6154 2.12723 22.4528 1.99491 22.2496 1.89313C22.0667 1.77099 21.823 1.70992 21.5181 1.70992C20.8273 1.70992 20.1263 2.03562 19.4151 2.68702C18.7039 3.31807 17.9521 4.19338 17.1596 5.31296C16.3672 6.41222 15.5138 7.70481 14.5994 9.19083C13.7054 10.6565 12.7301 12.2138 11.6734 13.8626C10.6372 15.5114 9.50944 17.2112 8.29028 18.9618C7.07112 20.6921 5.74021 22.3715 4.29753 24L2.19449 22.5954C2.8447 21.6183 3.5254 20.5903 4.23658 19.5115C4.96805 18.4122 5.67926 17.3028 6.3701 16.1832C7.08126 15.0636 7.75181 13.9542 8.3817 12.8549C9.03192 11.7354 9.60086 10.6768 10.0885 9.67938C10.5762 8.68191 10.9623 7.76591 11.2467 6.9313C11.5312 6.09668 11.6734 5.38422 11.6734 4.79388C11.6734 4.10179 11.5007 3.60305 11.1553 3.29771C10.8099 2.99237 10.3628 2.83969 9.81422 2.83969C9.164 2.83969 8.52397 3.07379 7.89404 3.54198C7.28448 4.01016 6.63426 4.67177 5.94338 5.52671C5.27288 6.38169 4.54138 7.40968 3.74891 8.61069C2.97678 9.79133 2.09289 11.0941 1.09724 12.5191L0 11.6641C1.07692 9.95418 2.04209 8.44784 2.8955 7.14504C3.76923 5.84224 4.59219 4.75319 5.3643 3.87786C6.13641 3.00254 6.89842 2.34097 7.6502 1.89313C8.42236 1.44529 9.25546 1.22137 10.1495 1.22137C10.4136 1.22137 10.7489 1.27226 11.1553 1.37404C11.582 1.47583 11.9986 1.65903 12.4049 1.92366C12.8113 2.18829 13.1669 2.55471 13.4717 3.0229C13.7968 3.49109 13.9898 4.09159 14.0508 4.82441C15.1887 3.35878 16.3773 2.18829 17.6168 1.31298C18.8563 0.437661 20.0247 0 21.1219 0C21.9144 0 22.5849 0.162849 23.1335 0.488549C23.6821 0.793894 24.119 1.20102 24.4441 1.70992C24.7896 2.21883 25.0334 2.79898 25.1756 3.45038C25.3382 4.08142 25.4194 4.72266 25.4194 5.37406C25.4194 5.53691 25.4093 5.70992 25.389 5.89314C25.389 6.07631 25.3788 6.25953 25.3585 6.44275Z" fill="#731054"/>
</g>
</svg>
